<?xml version="1.0" encoding="UTF-8" standalone="no" ?>
<!DOCTYPE svg PUBLIC "-//W3C//DTD SVG 1.1//EN" "http://www.w3.org/Graphics/SVG/1.1/DTD/svg11.dtd">
<svg xmlns="http://www.w3.org/2000/svg" xmlns:xlink="http://www.w3.org/1999/xlink" version="1.1" width="1080" height="1080" viewBox="0 0 1080 1080" xml:space="preserve">
<desc>Created with Fabric.js 5.2.4</desc>
<defs>
</defs>
<g transform="matrix(1 0 0 1 540 540)" id="88bc7037-8942-4a68-bf4c-873a64a55e6c"  >
<rect style="stroke: none; stroke-width: 1; stroke-dasharray: none; stroke-linecap: butt; stroke-dashoffset: 0; stroke-linejoin: miter; stroke-miterlimit: 4; fill: rgb(255,255,255); fill-rule: nonzero; opacity: 1; visibility: hidden;" vector-effect="non-scaling-stroke"  x="-540" y="-540" rx="0" ry="0" width="1080" height="1080" />
</g>
<g transform="matrix(1 0 0 1 540 540)" id="c7cfe173-128b-475d-8d11-7cdc6f69d92f"  >
</g>
<g transform="matrix(67.5 0 0 67.5 540 540)"  >
<g style=""   >
		<g transform="matrix(1 0 0 1 0 0)"  >
<path style="stroke: none; stroke-width: 1; stroke-dasharray: none; stroke-linecap: butt; stroke-dashoffset: 0; stroke-linejoin: miter; stroke-miterlimit: 4; fill: rgb(0,0,0); fill-opacity: 0.85; fill-rule: nonzero; opacity: 1;" vector-effect="non-scaling-stroke"  transform=" translate(-8, -8)" d="M 6.50839 14.6666 C 6.77899 14.6666 7.05625 14.6493 7.33885 14.6133 C 9.07575 14.3959 10.7847 13.5227 12.1537 12.1535 C 13.5227 10.7843 14.3971 9.07376 14.6144 7.33792 C 14.8383 5.53942 14.3384 3.9249 13.2054 2.793 C 12.0737 1.6611 10.4674 1.16248 8.66119 1.38513 C 6.92429 1.60244 5.21538 2.47569 3.84638 3.8449 C 2.47739 5.21411 1.60294 6.92462 1.38566 8.66047 C 1.16171 10.459 1.66159 12.0735 2.79464 13.2054 C 3.74907 14.1626 5.04608 14.6666 6.50839 14.6666 Z M 9.48499 2.66768 C 10.594 2.66768 11.5645 3.03698 12.263 3.73691 C 13.0988 4.5715 13.4627 5.79273 13.2907 7.17393 C 13.1108 8.6178 12.3736 10.0523 11.2112 11.2122 C 10.0488 12.3721 8.6172 13.1107 7.17356 13.292 C 5.7939 13.4654 4.57154 13.1001 3.73708 12.2641 C 2.90128 11.4295 2.53737 10.2083 2.70933 8.82712 C 2.88929 7.38325 3.62644 5.94871 4.78881 4.78882 C 5.95119 3.62892 7.38284 2.89032 8.82648 2.70901 C 9.05043 2.68101 9.27037 2.66768 9.48499 2.66768 Z" stroke-linecap="round" />
</g>
		<g transform="matrix(1 0 0 1 0 0)"  >
<path style="stroke: none; stroke-width: 1; stroke-dasharray: none; stroke-linecap: butt; stroke-dashoffset: 0; stroke-linejoin: miter; stroke-miterlimit: 4; fill: rgb(0,0,0); fill-opacity: 0.85; fill-rule: evenodd; opacity: 1;" vector-effect="non-scaling-stroke"  transform=" translate(-8, -8)" d="M 7.33881 14.6133 C 7.05621 14.6493 6.77895 14.6666 6.50835 14.6666 C 5.04604 14.6666 3.74903 14.1626 2.7946 13.2054 C 1.66155 12.0735 1.16167 10.459 1.38562 8.66046 C 1.6029 6.92462 2.47735 5.21411 3.84634 3.8449 C 5.21534 2.47569 6.92425 1.60244 8.66115 1.38513 C 10.4674 1.16248 12.0736 1.6611 13.2054 2.793 C 14.3384 3.9249 14.8383 5.53942 14.6143 7.33792 C 14.3971 9.07376 13.5226 10.7843 12.1536 12.1535 C 10.7846 13.5227 9.07571 14.3959 7.33881 14.6133 Z M 11.6665 3.25944 C 11.0514 2.87016 10.3062 2.66768 9.48495 2.66768 C 9.27033 2.66768 9.05038 2.68101 8.82644 2.70901 C 7.3828 2.89032 5.95115 3.62892 4.78877 4.78882 C 3.6264 5.94871 2.88925 7.38325 2.70929 8.82712 C 2.53733 10.2083 2.90124 11.4295 3.73704 12.2641 C 3.77288 12.3 3.80945 12.3351 3.84671 12.3693 C 3.84435 12.2996 3.8431 12.2191 3.84375 12.1247 C 3.84422 12.0571 3.84425 11.9891 3.84427 11.9204 C 3.8446 10.9799 3.84496 9.93475 5 8.66658 C 6.23748 7.30602 7.1413 6.97131 8.19016 6.80397 C 8.24629 6.79513 8.30293 6.78638 8.35998 6.77758 C 9.25649 6.63919 10.2538 6.48525 11 5.66658 C 11.6879 4.91188 11.6792 4.2765 11.669 3.54016 C 11.6677 3.4483 11.6664 3.35487 11.6665 3.25944 Z M 13.0972 5.07333 C 13.3174 5.69958 13.3855 6.41244 13.2907 7.17393 C 13.1107 8.6178 12.3736 10.0523 11.2112 11.2122 C 10.0488 12.3721 8.61716 13.1107 7.17352 13.292 C 6.46549 13.381 5.79888 13.3281 5.20487 13.1425 C 5.21601 12.9641 5.21289 12.7726 5.2094 12.5596 C 5.20719 12.424 5.20483 12.2798 5.20592 12.1247 L 5.20593 12.1231 C 5.21205 11.2352 5.2169 10.5319 6.00999 9.65991 C 6.80369 8.78915 7.39308 8.48128 8.33334 8.33325 C 8.46863 8.31167 8.61067 8.29255 8.75813 8.2727 C 9.75388 8.1387 10.9966 7.97146 12.0745 6.78639 C 12.6186 6.18819 12.9246 5.61375 13.0972 5.07333 Z" stroke-linecap="round" />
</g>
</g>
</g>
</svg>